<?xml version="1.0" encoding="UTF-8" standalone="no"?>
<!DOCTYPE svg PUBLIC "-//W3C//DTD SVG 1.1//EN" "http://www.w3.org/Graphics/SVG/1.1/DTD/svg11.dtd">
<svg width="100%" height="100%" viewBox="0 0 97 97" version="1.1" xmlns="http://www.w3.org/2000/svg" xmlns:xlink="http://www.w3.org/1999/xlink" xml:space="preserve" xmlns:serif="http://www.serif.com/" style="fill-rule:evenodd;clip-rule:evenodd;stroke-linejoin:round;stroke-miterlimit:2;">
    <g transform="matrix(1,0,0,1,-25,-62)">
        <g>
            <g transform="matrix(1,0,0,1,-0.687075,9.32587e-15)">
                <circle cx="73.96" cy="110.548" r="48.271" style="fill:rgb(216,64,40);"/>
            </g>
            <path d="M73.923,133.926C66.201,133.926 50.757,136.26 50.757,136.26C49.635,136.429 48.509,135.976 47.817,135.077C47.124,134.178 46.973,132.974 47.423,131.932C55.726,112.685 72.138,112.683 73.912,112.742C75.701,112.683 92.119,112.681 100.423,131.932C100.873,132.974 100.722,134.178 100.03,135.077C99.337,135.976 98.212,136.429 97.089,136.26C97.089,136.26 81.646,133.926 73.923,133.926ZM73.923,127.676C78.749,127.676 86.474,128.544 91.873,129.237C84.637,118.577 74.094,118.99 74.094,118.99C73.98,118.996 73.866,118.996 73.752,118.99C73.752,118.99 63.209,118.577 55.973,129.237C61.372,128.544 69.097,127.676 73.923,127.676Z" style="fill:rgb(69,34,1);"/>
            <path d="M73.923,127.676C78.749,127.676 86.474,128.544 91.873,129.237C84.637,118.577 74.094,118.99 74.094,118.99C73.98,118.996 73.866,118.996 73.752,118.99C73.752,118.99 63.209,118.577 55.973,129.237C61.372,128.544 69.097,127.676 73.923,127.676Z" style="fill:rgb(235,235,235);"/>
            <path d="M46.108,96.455C44.512,95.801 43.747,93.974 44.4,92.378C45.054,90.783 46.881,90.018 48.477,90.671L67.152,98.322C68.332,98.806 69.1,99.957 69.092,101.231C69.085,102.506 68.305,103.649 67.12,104.119L48.456,111.524C46.853,112.16 45.035,111.374 44.399,109.771C43.763,108.168 44.548,106.35 46.151,105.714L57.611,101.168L46.108,96.455Z" style="fill:rgb(69,34,1);"/>
            <g transform="matrix(-1,0,0,1,146.688,0)">
                <path d="M48.477,90.671C46.881,90.018 45.054,90.783 44.4,92.378C43.747,93.974 44.512,95.801 46.108,96.455L57.611,101.168L46.151,105.714C44.548,106.35 43.763,108.168 44.399,109.771C45.035,111.374 46.853,112.16 48.456,111.524L67.12,104.119C68.305,103.649 69.085,102.506 69.092,101.231C69.1,99.957 68.332,98.806 67.152,98.322L48.477,90.671Z" style="fill:rgb(69,34,1);"/>
            </g>
        </g>
    </g>
</svg>
