<?xml version="1.0" encoding="UTF-8" standalone="no"?>
<!DOCTYPE svg PUBLIC "-//W3C//DTD SVG 1.1//EN" "http://www.w3.org/Graphics/SVG/1.1/DTD/svg11.dtd">
<svg width="100%" height="100%" viewBox="0 0 98 97" version="1.1" xmlns="http://www.w3.org/2000/svg" xmlns:xlink="http://www.w3.org/1999/xlink" xml:space="preserve" xmlns:serif="http://www.serif.com/" style="fill-rule:evenodd;clip-rule:evenodd;stroke-linejoin:round;stroke-miterlimit:2;">
    <g transform="matrix(1,0,0,1,-484,-62)">
        <g>
            <g transform="matrix(1,0,0,1,458.882,9.32587e-15)">
                <circle cx="73.96" cy="110.548" r="48.271" style="fill:rgb(35,184,64);"/>
            </g>
            <g transform="matrix(1,0,0,1,459.498,0)">
                <path d="M46.108,96.455C44.512,95.801 43.747,93.974 44.4,92.378C45.054,90.783 46.881,90.018 48.477,90.671L67.152,98.322C68.332,98.806 69.1,99.957 69.092,101.231C69.085,102.506 68.305,103.649 67.12,104.119L48.456,111.524C46.853,112.16 45.035,111.374 44.399,109.771C43.763,108.168 44.548,106.35 46.151,105.714L57.611,101.168L46.108,96.455Z" style="fill:rgb(69,34,1);"/>
            </g>
            <g transform="matrix(-1,0,0,1,606.186,0)">
                <path d="M48.477,90.671C46.881,90.018 45.054,90.783 44.4,92.378C43.747,93.974 44.512,95.801 46.108,96.455L57.611,101.168L46.151,105.714C44.548,106.35 43.763,108.168 44.399,109.771C45.035,111.374 46.853,112.16 48.456,111.524L67.12,104.119C68.305,103.649 69.085,102.506 69.092,101.231C69.1,99.957 68.332,98.806 67.152,98.322L48.477,90.671Z" style="fill:rgb(69,34,1);"/>
            </g>
            <g transform="matrix(1.00036,1.22509e-16,1.53125e-16,-1.25036,344.06,286.165)">
                <path d="M189.043,116.66C166.524,116.66 160.978,132.483 160.978,132.483C160.673,133.335 160.955,134.252 161.718,134.893C162.482,135.535 163.613,135.805 164.691,135.604C164.691,135.604 173.01,134.071 189.043,134.071C205.076,134.071 213.395,135.604 213.395,135.604C214.473,135.805 215.604,135.535 216.367,134.893C217.131,134.252 217.413,133.335 217.108,132.483C217.108,132.483 211.562,116.66 189.043,116.66ZM189.043,121.658C199.983,121.658 205.848,126.379 208.718,129.946C204.399,129.517 197.811,129.073 189.043,129.073C180.275,129.073 173.687,129.517 169.367,129.946C172.238,126.378 178.103,121.658 189.043,121.658Z" style="fill:rgb(69,34,1);"/>
            </g>
            <g transform="matrix(1.00036,1.22509e-16,1.53125e-16,-1.25036,344.06,286.165)">
                <path d="M189.043,121.658C199.983,121.658 205.848,126.379 208.718,129.946C204.399,129.517 197.811,129.073 189.043,129.073C180.275,129.073 173.687,129.517 169.367,129.946C172.238,126.378 178.103,121.658 189.043,121.658Z" style="fill:rgb(235,235,235);"/>
            </g>
        </g>
    </g>
</svg>
